<svg width="209" height="136" viewBox="0 0 209 136" fill="none" xmlns="http://www.w3.org/2000/svg">
<path d="M99.376 112.384V136H0.88C1.008 129.984 1.776 124.48 3.184 119.488C4.72 114.368 6.448 110.08 8.368 106.624C10.416 103.168 13.488 99.52 17.584 95.68C21.68 91.84 25.264 88.768 28.336 86.464C31.536 84.16 36.144 80.96 42.16 76.864C42.928 76.352 44.976 75.008 48.304 72.832C51.632 70.656 53.936 69.12 55.216 68.224C56.496 67.328 58.416 65.792 60.976 63.616C63.536 61.312 65.328 59.328 66.352 57.664C67.504 56 68.592 53.952 69.616 51.52C70.64 48.96 71.152 46.336 71.152 43.648C71.152 37.76 69.36 33.088 65.776 29.632C62.32 26.048 57.712 24.256 51.952 24.256C38.128 24.256 30.832 33.984 30.064 53.44H3.952V50.56C3.952 35.328 8.368 23.232 17.2 14.272C26.032 5.18399 37.936 0.639992 52.912 0.639992C66.48 0.639992 77.488 4.47999 85.936 12.16C94.384 19.712 98.608 29.568 98.608 41.728C98.608 51.584 96.368 59.456 91.888 65.344C87.408 71.232 80.368 77.44 70.768 83.968C69.488 84.864 67.12 86.464 63.664 88.768C60.208 90.944 57.456 92.736 55.408 94.144C53.488 95.552 51.12 97.344 48.304 99.52C45.488 101.696 43.056 103.872 41.008 106.048C38.96 108.096 37.232 110.208 35.824 112.384H99.376ZM208.176 82.432V105.088H190.128V136H164.784V105.088H107.184V79.936L165.552 1.216H190.128V82.432H208.176ZM164.784 82.432V32.512L129.072 82.432H164.784Z" fill="white"/>
</svg>
