<svg width="16" height="16" viewBox="0 0 16 16" fill="none" xmlns="http://www.w3.org/2000/svg">
<path fill-rule="evenodd" clip-rule="evenodd" d="M1.35803 7.52888C5.49236 5.72762 8.24922 4.54013 9.62862 3.96639C13.5671 2.32824 14.3855 2.04368 14.9189 2.03428C15.0362 2.03221 15.2985 2.06129 15.4684 2.19916C15.6119 2.31558 15.6514 2.47285 15.6703 2.58323C15.6892 2.69361 15.7127 2.94505 15.694 3.14152C15.4806 5.38402 14.5571 10.826 14.0872 13.3376C13.8884 14.4004 13.497 14.7567 13.118 14.7916C12.2945 14.8674 11.6691 14.2473 10.8714 13.7244C9.62323 12.9062 8.91807 12.3969 7.70648 11.5985C6.30628 10.6758 7.21398 10.1686 8.01195 9.33981C8.22078 9.12291 11.8495 5.82235 11.9197 5.52294C11.9285 5.48549 11.9366 5.34591 11.8537 5.27221C11.7708 5.1985 11.6484 5.22371 11.5601 5.24375C11.4349 5.27216 9.44087 6.59013 5.57804 9.19764C5.01205 9.5863 4.49939 9.77566 4.04007 9.76574C3.5337 9.7548 2.55965 9.47943 1.83555 9.24405C0.9474 8.95535 0.24152 8.80271 0.302987 8.31241C0.335002 8.05703 0.686684 7.79585 1.35803 7.52888Z" fill="white"/>
</svg>
