<svg width="133" height="126" viewBox="0 0 133 126" fill="none" xmlns="http://www.w3.org/2000/svg">
<path d="M24.3039 38.2766L19.7907 44.2517L27.1765 49.8305L28.1559 48.5339L21.8904 43.8012L24.4448 40.4195L30.7103 45.1522L31.6897 43.8555L24.3039 38.2766Z" fill="#CBCECF"/>
<path d="M30.8187 31.7406C28.5768 33.4743 28.5853 36.1628 30.2474 38.3121C32.0129 40.5951 34.6329 41.0505 36.7308 39.4282C38.8184 37.8138 39.047 35.1555 37.2815 32.8725C35.524 30.5998 32.8857 30.1421 30.8187 31.7406ZM31.6332 32.8363C32.9906 31.7865 34.6815 32.188 35.9778 33.8643C37.2741 35.5405 37.2532 37.2986 35.9163 38.3325C34.5383 39.3981 32.8474 38.9966 31.5273 37.2895C30.2469 35.6339 30.286 33.8781 31.6332 32.8363Z" fill="#CBCECF"/>
<path d="M48.5005 28.686C49.2052 30.8285 48.3481 32.8017 46.2103 33.6874C43.7963 34.6875 41.4746 33.5668 40.3551 30.8645C39.35 28.4384 39.9814 25.7847 42.5756 24.71C44.281 24.0035 46.2545 24.2835 47.3637 26.1457L45.8744 26.7627C45.2423 25.8144 44.1839 25.5353 43.079 25.993C41.2775 26.7394 41.2165 28.6642 41.8683 30.2376C42.5251 31.8229 43.8934 33.1557 45.719 32.3994C47.1121 31.8222 47.3656 30.6337 46.9992 29.308L48.5005 28.686Z" fill="#CBCECF"/>
<path d="M60.3272 19.7641L58.0815 20.0347L56.4695 27.5222L53.035 20.6427L50.7763 20.9148L51.8834 30.1043L53.4064 29.9208L52.5527 22.8351L56.0264 29.6052L57.3429 29.4466L59.0448 22.0529L59.8984 29.1387L61.4343 28.9537L60.3272 19.7641Z" fill="#CBCECF"/>
<path d="M69.8334 20.2412C72.4095 20.6791 73.8598 22.93 73.3783 25.7623C72.8946 28.6075 70.7842 30.2399 68.1825 29.7977C65.568 29.3532 64.1284 27.1173 64.612 24.2721C65.0674 21.5935 67.0395 19.7662 69.8334 20.2412ZM69.579 21.5825C67.9001 21.2971 66.582 22.4576 66.2312 24.521C65.8696 26.6485 66.7195 28.1644 68.4369 28.4563C70.103 28.7395 71.4105 27.564 71.7656 25.475C72.1208 23.386 71.2708 21.8701 69.579 21.5825Z" fill="#CBCECF"/>
<path d="M85.4602 25.4702L84.8834 26.7502L82.1929 25.5379L78.9672 32.6967L77.4856 32.0291L80.7114 24.8703L78.0209 23.658L78.5977 22.3779L85.4602 25.4702Z" fill="#CBCECF"/>
<path d="M90.0394 28.0418L84.4039 35.3845L85.693 36.3739L87.8617 33.5482L89.9346 35.1391C91.4196 36.2788 92.9975 36.0805 94.066 34.6883C95.2454 33.1517 94.742 31.651 93.226 30.4875L90.0394 28.0418ZM90.5053 30.1037L92.1863 31.3939C93.001 32.0191 93.5123 32.8049 92.7841 33.7536C92.1193 34.6199 91.2909 34.5249 90.4556 33.8838L88.6611 32.5066L90.5053 30.1037Z" fill="#CBCECF"/>
<path d="M103.227 40.6403L102.169 41.5034L98.972 37.5855L97.0684 39.139L100.036 42.7749L99.0184 43.605L96.0512 39.9691L93.9361 41.6952L97.1828 45.6736L96.1052 46.553L91.8392 41.3258L99.0103 35.4735L103.227 40.6403Z" fill="#CBCECF"/>
<path d="M108.97 50.7541L107.708 51.371L106.412 48.72L99.3583 52.1698L98.6444 50.71L105.698 47.2603L104.401 44.6093L105.663 43.9925L108.97 50.7541Z" fill="#CBCECF"/>
<path d="M105.214 64.1849C106.988 63.778 107.736 62.446 107.283 60.4693L106.731 58.0618L110.177 57.2713L109.814 55.6875L100.792 57.7567L101.708 61.7481C102.158 63.7121 103.428 64.5946 105.214 64.1849ZM104.813 62.6097C103.837 62.8335 103.224 62.4273 102.986 61.3883L102.448 59.0442L105.438 58.3583L105.97 60.6771C106.197 61.6654 105.763 62.3917 104.813 62.6097Z" fill="#CBCECF"/>
<path d="M112.13 72.7017L111.578 76.8905C111.317 78.8754 110.245 79.7439 108.879 79.564C107.99 79.4469 107.326 78.8088 107.119 77.9948C106.723 79.0048 105.847 79.5844 104.662 79.4283C103.038 79.2144 102.111 77.8861 102.337 76.1719L102.953 71.4933L112.13 72.7017ZM110.621 74.1027L108.095 73.77L107.806 75.9611C107.648 77.1598 107.904 77.8097 108.832 77.9319C109.979 78.0829 110.205 77.2604 110.326 76.3453L110.621 74.1027ZM106.935 73.6173L104.06 73.2388L103.743 75.649C103.601 76.7317 103.739 77.6678 104.912 77.8223C106.175 77.9886 106.483 77.0457 106.621 76.0017L106.935 73.6173Z" fill="#FF3E41"/>
<path d="M101.468 81.6147L110.046 85.0902L109.436 86.5963L102.858 83.9311L107.943 90.2832L107.235 92.0303L98.6561 88.5548L99.2663 87.0487L105.845 89.7139L100.76 83.3618L101.468 81.6147Z" fill="#FF3E41"/>
<path d="M90.6014 96.4949L91.5398 95.2325L93.3865 96.6052L96.985 91.7642L95.1384 90.3915L96.0768 89.1291L99.0502 91.3394L98.5151 92.0593C99.0979 93.3672 100.903 95.3407 102.948 96.8608L104.096 97.7139L100.497 102.555L94.1953 97.8706L93.5749 98.7052L90.6014 96.4949ZM95.1647 96.5664L100.34 100.413L102.023 98.1491L101.574 97.8157C99.7272 96.4429 98.0632 94.6066 97.4759 93.4573L95.1647 96.5664Z" fill="#FF3E41"/>
<path d="M89.7998 109.758L88.9328 108.704L92.8387 105.492L91.2781 103.594L87.6533 106.575L86.8193 105.561L90.4441 102.58L88.7101 100.471L84.7439 103.733L83.8604 102.658L89.0716 98.3729L94.9508 105.522L89.7998 109.758Z" fill="#FF3E41"/>
<path d="M81.3772 114.47C79.0093 115.575 76.5363 114.549 75.3214 111.945C74.1011 109.33 74.9086 106.787 77.3001 105.671C79.7033 104.55 82.1591 105.57 83.3794 108.185C84.5283 110.647 83.9454 113.272 81.3772 114.47ZM80.8236 113.222C82.3669 112.502 82.7911 110.798 81.906 108.901C80.9936 106.946 79.4323 106.182 77.8537 106.919C76.3222 107.634 75.9153 109.344 76.8113 111.264C77.7073 113.185 79.2686 113.948 80.8236 113.222Z" fill="#FF3E41"/>
<path fill-rule="evenodd" clip-rule="evenodd" d="M58.6461 59.5L77.3538 70.0001L58.6461 80.5L58.6461 59.5ZM61.6461 64.7986L61.6461 75.2014L71.5229 70.0001L61.6461 64.7986Z" fill="#FF3E41"/>
</svg>
