<svg width="18" height="18" viewBox="0 0 18 18" fill="none" xmlns="http://www.w3.org/2000/svg">
<path d="M0 18L1.27221 13.3802C0.485673 12.0242 0.0730658 10.4886 0.0773638 8.91873C0.0773638 3.99953 4.10028 0 9.03868 0C11.437 0 13.6891 0.928232 15.3782 2.61359C17.0716 4.29895 18.0043 6.5404 18 8.92301C18 13.8422 13.9771 17.8417 9.03438 17.8417H9.03008C7.53008 17.8417 6.05587 17.4653 4.74498 16.7552L0 18ZM4.97278 15.1426L5.24355 15.3051C6.38681 15.981 7.6977 16.336 9.03438 16.3403H9.03868C13.1433 16.3403 16.4871 13.0166 16.4871 8.92728C16.4871 6.94677 15.7135 5.08603 14.308 3.68299C12.9026 2.27994 11.0286 1.50998 9.03868 1.50998C4.93409 1.5057 1.59026 4.82937 1.59026 8.91873C1.59026 10.3175 1.98137 11.682 2.72922 12.8626L2.90544 13.145L2.15329 15.8783L4.97278 15.1426Z" fill="white"/>
<path d="M0 18L1.27221 13.3802C0.485673 12.0242 0.0730658 10.4886 0.0773638 8.91873C0.0773638 3.99953 4.10028 0 9.03868 0C11.437 0 13.6891 0.928232 15.3782 2.61359C17.0716 4.29895 18.0043 6.5404 18 8.92301C18 13.8422 13.9771 17.8417 9.03438 17.8417H9.03008C7.53008 17.8417 6.05587 17.4653 4.74498 16.7552L0 18ZM4.97278 15.1426L5.24355 15.3051C6.38681 15.981 7.6977 16.336 9.03438 16.3403H9.03868C13.1433 16.3403 16.4871 13.0166 16.4871 8.92728C16.4871 6.94677 15.7135 5.08603 14.308 3.68299C12.9026 2.27994 11.0286 1.50998 9.03868 1.50998C4.93409 1.5057 1.59026 4.82937 1.59026 8.91873C1.59026 10.3175 1.98137 11.682 2.72922 12.8626L2.90544 13.145L2.15329 15.8783L4.97278 15.1426Z" fill="white"/>
<path fill-rule="evenodd" clip-rule="evenodd" d="M6.79938 5.1887C6.63176 4.81655 6.45554 4.80799 6.29651 4.80372C6.16757 4.79944 6.01715 4.79944 5.86672 4.79944C5.71629 4.79944 5.4756 4.85505 5.26929 5.07748C5.06299 5.29991 4.48706 5.83889 4.48706 6.93822C4.48706 8.03328 5.29078 9.09412 5.40253 9.24383C5.51428 9.39355 6.95411 11.7163 9.22774 12.6103C11.1189 13.3546 11.5057 13.2049 11.914 13.1664C12.3223 13.1279 13.2378 12.6274 13.4269 12.1055C13.6117 11.5837 13.6117 11.1388 13.5558 11.0447C13.4999 10.9506 13.3495 10.895 13.126 10.7838C12.9025 10.6725 11.8022 10.1336 11.5959 10.0566C11.3896 9.98385 11.2392 9.94535 11.0931 10.1678C10.9426 10.3902 10.5128 10.8907 10.3839 11.0404C10.255 11.1901 10.1217 11.2072 9.89823 11.096C9.67474 10.9848 8.95267 10.7495 8.09737 9.98813C7.43118 9.39782 6.97989 8.66636 6.85096 8.44393C6.72202 8.22149 6.83806 8.10172 6.94981 7.9905C7.04866 7.89212 7.1733 7.72957 7.28505 7.60124C7.3968 7.47292 7.43548 7.37881 7.50855 7.2291C7.58161 7.07938 7.54723 6.95105 7.49136 6.83984C7.43548 6.7329 6.99709 5.62929 6.79938 5.1887Z" fill="white"/>
</svg>
