<svg width="18" height="16" viewBox="0 0 18 16" fill="none" xmlns="http://www.w3.org/2000/svg">
<path d="M13.1667 0.916504H4.83335C2.33335 0.916504 0.666687 2.1665 0.666687 5.08317V10.9165C0.666687 13.8332 2.33335 15.0832 4.83335 15.0832H13.1667C15.6667 15.0832 17.3334 13.8332 17.3334 10.9165V5.08317C17.3334 2.1665 15.6667 0.916504 13.1667 0.916504ZM13.5584 5.9915L10.95 8.07484C10.4 8.5165 9.70002 8.73317 9.00002 8.73317C8.30002 8.73317 7.59169 8.5165 7.05002 8.07484L4.44169 5.9915C4.17502 5.77484 4.13335 5.37484 4.34169 5.10817C4.55835 4.8415 4.95002 4.7915 5.21669 5.00817L7.82502 7.0915C8.45835 7.59984 9.53335 7.59984 10.1667 7.0915L12.775 5.00817C13.0417 4.7915 13.4417 4.83317 13.65 5.10817C13.8667 5.37484 13.825 5.77484 13.5584 5.9915Z" fill="white"/>
</svg>
