<svg width="18" height="18" viewBox="0 0 18 18" fill="none" xmlns="http://www.w3.org/2000/svg">
<path d="M0 18L1.27221 13.3802C0.485673 12.0242 0.0730658 10.4886 0.0773638 8.91873C0.0773638 3.99953 4.10028 0 9.03868 0C11.437 0 13.6891 0.928232 15.3782 2.61359C17.0716 4.29895 18.0043 6.5404 18 8.92301C18 13.8422 13.9771 17.8417 9.03438 17.8417H9.03008C7.53008 17.8417 6.05587 17.4653 4.74498 16.7552L0 18ZM4.97278 15.1426L5.24355 15.3051C6.38681 15.981 7.6977 16.336 9.03438 16.3403H9.03868C13.1433 16.3403 16.4871 13.0166 16.4871 8.92728C16.4871 6.94677 15.7135 5.08603 14.308 3.68299C12.9026 2.27994 11.0286 1.50998 9.03868 1.50998C4.93409 1.5057 1.59026 4.82937 1.59026 8.91873C1.59026 10.3175 1.98137 11.682 2.72922 12.8626L2.90544 13.145L2.15329 15.8783L4.97278 15.1426Z" fill="white"/>
<path d="M0 18L1.27221 13.3802C0.485673 12.0242 0.0730658 10.4886 0.0773638 8.91873C0.0773638 3.99953 4.10028 0 9.03868 0C11.437 0 13.6891 0.928232 15.3782 2.61359C17.0716 4.29895 18.0043 6.5404 18 8.92301C18 13.8422 13.9771 17.8417 9.03438 17.8417H9.03008C7.53008 17.8417 6.05587 17.4653 4.74498 16.7552L0 18ZM4.97278 15.1426L5.24355 15.3051C6.38681 15.981 7.6977 16.336 9.03438 16.3403H9.03868C13.1433 16.3403 16.4871 13.0166 16.4871 8.92728C16.4871 6.94677 15.7135 5.08603 14.308 3.68299C12.9026 2.27994 11.0286 1.50998 9.03868 1.50998C4.93409 1.5057 1.59026 4.82937 1.59026 8.91873C1.59026 10.3175 1.98137 11.682 2.72922 12.8626L2.90544 13.145L2.15329 15.8783L4.97278 15.1426Z" fill="white"/>
<path fill-rule="evenodd" clip-rule="evenodd" d="M6.79935 5.18858C6.63173 4.81643 6.45551 4.80787 6.29648 4.80359C6.16754 4.79932 6.01711 4.79932 5.86669 4.79932C5.71626 4.79932 5.47557 4.85492 5.26926 5.07736C5.06296 5.29979 4.48703 5.83877 4.48703 6.9381C4.48703 8.03316 5.29075 9.09399 5.4025 9.24371C5.51425 9.39342 6.95408 11.7161 9.22771 12.6102C11.1188 13.3545 11.5056 13.2047 11.914 13.1662C12.3223 13.1277 13.2377 12.6273 13.4269 12.1054C13.6117 11.5835 13.6117 11.1387 13.5558 11.0446C13.4999 10.9505 13.3495 10.8949 13.126 10.7836C12.9025 10.6724 11.8022 10.1334 11.5959 10.0564C11.3896 9.98373 11.2392 9.94523 11.093 10.1677C10.9426 10.3901 10.5128 10.8906 10.3839 11.0403C10.2549 11.19 10.1217 11.2071 9.8982 11.0959C9.67471 10.9847 8.95264 10.7494 8.09734 9.98801C7.43115 9.3977 6.97986 8.66624 6.85092 8.4438C6.72198 8.22137 6.83803 8.1016 6.94978 7.99038C7.04863 7.892 7.17327 7.72945 7.28502 7.60112C7.39677 7.4728 7.43545 7.37869 7.50852 7.22897C7.58158 7.07926 7.5472 6.95093 7.49133 6.83972C7.43545 6.73278 6.99706 5.62916 6.79935 5.18858Z" fill="white"/>
</svg>
